<?xml version="1.0" encoding="utf-8"?>
<svg xmlns="http://www.w3.org/2000/svg" xmlns:xlink="http://www.w3.org/1999/xlink" style="margin: auto; background: rgb(241, 242, 243); display: block; shape-rendering: auto;" width="200px" height="200px" viewBox="0 0 100 100" preserveAspectRatio="xMidYMid">
<g transform="rotate(0 50 50)">
  <rect x="47" y="24" rx="3" ry="6" width="6" height="12" fill="#df1317">
    <animate attributeName="opacity" values="1;0" keyTimes="0;1" dur="0.8403361344537814s" begin="-0.7703081232492996s" repeatCount="indefinite"></animate>
  </rect>
</g><g transform="rotate(30 50 50)">
  <rect x="47" y="24" rx="3" ry="6" width="6" height="12" fill="#e4934b">
    <animate attributeName="opacity" values="1;0" keyTimes="0;1" dur="0.8403361344537814s" begin="-0.7002801120448179s" repeatCount="indefinite"></animate>
  </rect>
</g><g transform="rotate(60 50 50)">
  <rect x="47" y="24" rx="3" ry="6" width="6" height="12" fill="#e2bb8b">
    <animate attributeName="opacity" values="1;0" keyTimes="0;1" dur="0.8403361344537814s" begin="-0.6302521008403361s" repeatCount="indefinite"></animate>
  </rect>
</g><g transform="rotate(90 50 50)">
  <rect x="47" y="24" rx="3" ry="6" width="6" height="12" fill="#e1e7e7">
    <animate attributeName="opacity" values="1;0" keyTimes="0;1" dur="0.8403361344537814s" begin="-0.5602240896358543s" repeatCount="indefinite"></animate>
  </rect>
</g><g transform="rotate(120 50 50)">
  <rect x="47" y="24" rx="3" ry="6" width="6" height="12" fill="#91bcc6">
    <animate attributeName="opacity" values="1;0" keyTimes="0;1" dur="0.8403361344537814s" begin="-0.49019607843137253s" repeatCount="indefinite"></animate>
  </rect>
</g><g transform="rotate(150 50 50)">
  <rect x="47" y="24" rx="3" ry="6" width="6" height="12" fill="#07abcc">
    <animate attributeName="opacity" values="1;0" keyTimes="0;1" dur="0.8403361344537814s" begin="-0.4201680672268907s" repeatCount="indefinite"></animate>
  </rect>
</g><g transform="rotate(180 50 50)">
  <rect x="47" y="24" rx="3" ry="6" width="6" height="12" fill="#0a69aa">
    <animate attributeName="opacity" values="1;0" keyTimes="0;1" dur="0.8403361344537814s" begin="-0.35014005602240894s" repeatCount="indefinite"></animate>
  </rect>
</g><g transform="rotate(210 50 50)">
  <rect x="47" y="24" rx="3" ry="6" width="6" height="12" fill="#194645">
    <animate attributeName="opacity" values="1;0" keyTimes="0;1" dur="0.8403361344537814s" begin="-0.2801120448179272s" repeatCount="indefinite"></animate>
  </rect>
</g><g transform="rotate(240 50 50)">
  <rect x="47" y="24" rx="3" ry="6" width="6" height="12" fill="#df1317">
    <animate attributeName="opacity" values="1;0" keyTimes="0;1" dur="0.8403361344537814s" begin="-0.21008403361344535s" repeatCount="indefinite"></animate>
  </rect>
</g><g transform="rotate(270 50 50)">
  <rect x="47" y="24" rx="3" ry="6" width="6" height="12" fill="#e4934b">
    <animate attributeName="opacity" values="1;0" keyTimes="0;1" dur="0.8403361344537814s" begin="-0.1400560224089636s" repeatCount="indefinite"></animate>
  </rect>
</g><g transform="rotate(300 50 50)">
  <rect x="47" y="24" rx="3" ry="6" width="6" height="12" fill="#e2bb8b">
    <animate attributeName="opacity" values="1;0" keyTimes="0;1" dur="0.8403361344537814s" begin="-0.0700280112044818s" repeatCount="indefinite"></animate>
  </rect>
</g><g transform="rotate(330 50 50)">
  <rect x="47" y="24" rx="3" ry="6" width="6" height="12" fill="#e1e7e7">
    <animate attributeName="opacity" values="1;0" keyTimes="0;1" dur="0.8403361344537814s" begin="0s" repeatCount="indefinite"></animate>
  </rect>
</g>
</svg>